<svg width="82" height="34" viewBox="0 0 82 34" fill="none" xmlns="http://www.w3.org/2000/svg">
<path d="M17.81 33.3813C12.32 33.3813 8.03 32.0162 4.94 29.2862C1.88 26.5262 0.35 22.4462 0.35 17.0462C0.35 11.6762 1.91 7.62625 5.03 4.89625C8.18 2.13625 12.74 0.756249 18.71 0.756249H35.81V6.60625H19.205C15.275 6.60625 12.365 7.43125 10.475 9.08125C8.615 10.7312 7.685 13.3862 7.685 17.0462C7.685 20.5262 8.51 23.1062 10.16 24.7862C11.81 26.4362 14.225 27.3362 17.405 27.4862V14.9762H37.565V33.3813H17.81ZM24.155 27.5312H30.365V20.8262H24.155V27.5312ZM43.8541 33.1562V0.981248H70.8091C74.1391 0.981248 76.7191 1.82125 78.5491 3.50125C80.4091 5.18125 81.3391 7.73125 81.3391 11.1512C81.3391 14.0612 80.6641 16.3412 79.3141 17.9912C77.9641 19.6412 76.0441 20.6762 73.5541 21.0962L80.9791 33.1562H72.7891L65.9041 21.3212H51.0541V33.1562H43.8541ZM69.9541 6.83125H51.0541V15.4262L69.9541 15.4712C71.2741 15.4712 72.2791 15.1412 72.9691 14.4812C73.6891 13.8212 74.0491 12.7112 74.0491 11.1512C74.0491 9.56125 73.6891 8.45125 72.9691 7.82125C72.2791 7.16125 71.2741 6.83125 69.9541 6.83125Z" fill="#0AB1A3"/>
</svg>
