<svg width="390" height="42" viewBox="0 0 390 42" fill="none" xmlns="http://www.w3.org/2000/svg">
<g filter="url(#filter0_d_1_463)">
<path d="M21.81 33.225C16.32 33.225 12.03 31.86 8.94 29.13C5.88 26.37 4.35 22.29 4.35 16.89C4.35 11.52 5.91 7.47 9.03 4.74C12.18 1.98 16.74 0.599999 22.71 0.599999H39.81V6.45H23.205C19.275 6.45 16.365 7.275 14.475 8.925C12.615 10.575 11.685 13.23 11.685 16.89C11.685 20.37 12.51 22.95 14.16 24.63C15.81 26.28 18.225 27.18 21.405 27.33V14.82H41.565V33.225H21.81ZM28.155 27.375H34.365V20.67H28.155V27.375ZM53.3441 33C50.9141 33 49.0541 32.385 47.7641 31.155C46.4741 29.925 45.8291 28.17 45.8291 25.89C45.8291 23.64 46.4741 21.9 47.7641 20.67C49.0541 19.44 50.9141 18.825 53.3441 18.825H70.6241V17.745C70.6241 15.915 69.7241 15 67.9241 15H48.8441V9.825H69.6341C72.3641 9.825 74.2991 10.455 75.4391 11.715C76.5791 12.945 77.1491 14.685 77.1491 16.935V33H53.3441ZM54.5141 27.825H70.6241V24H54.5141C53.9441 24 53.4941 24.18 53.1641 24.54C52.8641 24.87 52.7141 25.32 52.7141 25.89C52.7141 26.46 52.8641 26.925 53.1641 27.285C53.4941 27.645 53.9441 27.825 54.5141 27.825ZM82.1156 33V9.825H112.131C114.771 9.825 116.706 10.485 117.936 11.805C119.166 13.095 119.781 14.805 119.781 16.935V33H113.256V17.745C113.256 15.915 112.326 15 110.466 15H104.211V33H97.6856V15H88.6406V33H82.1156ZM136.403 33.225C132.383 33.225 129.248 32.235 126.998 30.255C124.748 28.245 123.623 25.305 123.623 21.435C123.623 17.535 124.748 14.595 126.998 12.615C129.248 10.605 132.383 9.6 136.403 9.6H147.653C150.293 9.6 152.303 10.23 153.683 11.49C155.093 12.72 155.798 14.49 155.798 16.8C155.798 21.51 153.083 23.865 147.653 23.865H130.643C131.273 26.655 133.193 28.05 136.403 28.05H154.628V33.225H136.403ZM136.403 14.775C133.313 14.775 131.408 16.08 130.688 18.69H147.338C147.938 18.69 148.403 18.51 148.733 18.15C149.093 17.79 149.273 17.295 149.273 16.665C149.273 15.405 148.628 14.775 147.338 14.775H136.403ZM159.09 33.225V28.05H181.14C182.4 28.05 183.03 27.345 183.03 25.935C183.03 24.555 182.4 23.865 181.14 23.865H166.875C164.205 23.865 162.18 23.265 160.8 22.065C159.42 20.835 158.73 19.08 158.73 16.8C158.73 14.49 159.42 12.72 160.8 11.49C162.21 10.23 164.235 9.6 166.875 9.6H187.395V14.775H167.19C165.9 14.775 165.255 15.405 165.255 16.665C165.255 17.295 165.435 17.79 165.795 18.15C166.155 18.51 166.62 18.69 167.19 18.69H182.31C184.65 18.69 186.435 19.305 187.665 20.535C188.925 21.735 189.555 23.49 189.555 25.8C189.555 28.14 188.925 29.97 187.665 31.29C186.405 32.58 184.62 33.225 182.31 33.225H159.09ZM194.06 33V0.824998H221.015C224.345 0.824998 226.925 1.665 228.755 3.345C230.615 5.025 231.545 7.575 231.545 10.995C231.545 13.905 230.87 16.185 229.52 17.835C228.17 19.485 226.25 20.52 223.76 20.94L231.185 33H222.995L216.11 21.165H201.26V33H194.06ZM220.16 6.675H201.26V15.27L220.16 15.315C221.48 15.315 222.485 14.985 223.175 14.325C223.895 13.665 224.255 12.555 224.255 10.995C224.255 9.405 223.895 8.295 223.175 7.665C222.485 7.005 221.48 6.675 220.16 6.675ZM248.156 33.225C244.136 33.225 241.001 32.235 238.751 30.255C236.501 28.245 235.376 25.305 235.376 21.435C235.376 17.535 236.501 14.595 238.751 12.615C241.001 10.605 244.136 9.6 248.156 9.6H259.406C262.046 9.6 264.056 10.23 265.436 11.49C266.846 12.72 267.551 14.49 267.551 16.8C267.551 21.51 264.836 23.865 259.406 23.865H242.396C243.026 26.655 244.946 28.05 248.156 28.05H266.381V33.225H248.156ZM248.156 14.775C245.066 14.775 243.161 16.08 242.441 18.69H259.091C259.691 18.69 260.156 18.51 260.486 18.15C260.846 17.79 261.026 17.295 261.026 16.665C261.026 15.405 260.381 14.775 259.091 14.775H248.156ZM278.908 33L269.143 9.825H275.983L283.543 27.78H285.793L293.353 9.825H300.193L290.428 33H278.908ZM303.117 33V9.825H309.642V33H303.117ZM303.072 6V0.914997H309.687V6H303.072ZM326.466 33.225C322.446 33.225 319.311 32.235 317.061 30.255C314.811 28.245 313.686 25.305 313.686 21.435C313.686 17.535 314.811 14.595 317.061 12.615C319.311 10.605 322.446 9.6 326.466 9.6H337.716C340.356 9.6 342.366 10.23 343.746 11.49C345.156 12.72 345.861 14.49 345.861 16.8C345.861 21.51 343.146 23.865 337.716 23.865H320.706C321.336 26.655 323.256 28.05 326.466 28.05H344.691V33.225H326.466ZM326.466 14.775C323.376 14.775 321.471 16.08 320.751 18.69H337.401C338.001 18.69 338.466 18.51 338.796 18.15C339.156 17.79 339.336 17.295 339.336 16.665C339.336 15.405 338.691 14.775 337.401 14.775H326.466ZM350.998 33L348.793 9.825H355.363L356.893 27.42L363.868 24.27V9.825H370.393V24.315L377.368 27.42L378.898 9.825H385.468L383.263 33H377.098L367.108 28.59L357.163 33H350.998Z" fill="#0AB1A3"/>
</g>
<defs>
<filter id="filter0_d_1_463" x="0.350006" y="0.600006" width="389.118" height="40.625" filterUnits="userSpaceOnUse" color-interpolation-filters="sRGB">
<feFlood flood-opacity="0" result="BackgroundImageFix"/>
<feColorMatrix in="SourceAlpha" type="matrix" values="0 0 0 0 0 0 0 0 0 0 0 0 0 0 0 0 0 0 127 0" result="hardAlpha"/>
<feOffset dy="4"/>
<feGaussianBlur stdDeviation="2"/>
<feComposite in2="hardAlpha" operator="out"/>
<feColorMatrix type="matrix" values="0 0 0 0 0 0 0 0 0 0 0 0 0 0 0 0 0 0 0.25 0"/>
<feBlend mode="normal" in2="BackgroundImageFix" result="effect1_dropShadow_1_463"/>
<feBlend mode="normal" in="SourceGraphic" in2="effect1_dropShadow_1_463" result="shape"/>
</filter>
</defs>
</svg>
