<svg width="25" height="23" viewBox="0 0 25 23" fill="none" xmlns="http://www.w3.org/2000/svg">
<path d="M13.7072 1.1927L16.5269 6.44902C16.723 6.8146 17.1021 7.06792 17.5407 7.12645L23.8459 7.9694C24.9504 8.11717 25.3911 9.36552 24.5922 10.0818L20.0297 14.1733C19.7127 14.4578 19.5677 14.868 19.6428 15.2695L20.7196 21.0469C20.9084 22.0587 19.7538 22.8302 18.7662 22.3528L13.1268 19.6253C12.7347 19.4358 12.2658 19.4358 11.8737 19.6253L6.23434 22.3528C5.24665 22.8306 4.09208 22.0587 4.28086 21.0469L5.35773 15.2695C5.43282 14.868 5.28785 14.4578 4.97078 14.1733L0.40831 10.0818C-0.390605 9.36504 0.0500499 8.11669 1.15456 7.9694L7.45983 7.12645C7.8984 7.06792 8.27752 6.8146 8.4736 6.44902L11.2933 1.1927C11.7866 0.272029 13.2134 0.272029 13.7072 1.1927Z" fill="#ED8A19"/>
</svg>
